<svg xmlns="http://www.w3.org/2000/svg" width="161" height="161" viewBox="0 0 161 161"><g transform="translate(-959 -1565)"><path d="M0,0H86A10,10,0,0,1,96,10V86A10,10,0,0,1,86,96H10A10,10,0,0,1,0,86V0A0,0,0,0,1,0,0Z" transform="translate(959 1565)" fill="#dfbd80" opacity="0.255"/><path d="M0,0H44A10,10,0,0,1,54,10V44A10,10,0,0,1,44,54H10A10,10,0,0,1,0,44V0A0,0,0,0,1,0,0Z" transform="translate(1066 1637)" fill="#dfbd80" opacity="0.505"/><path d="M0,0H44A10,10,0,0,1,54,10V44A10,10,0,0,1,44,54H10A10,10,0,0,1,0,44V0A0,0,0,0,1,0,0Z" transform="translate(1001 1672)" fill="#dfbd80" opacity="0.505"/></g></svg>